<svg width="392" height="697" viewBox="0 0 392 697" fill="none" xmlns="http://www.w3.org/2000/svg">
<g filter="url(#filter0_ddddd_193_840)">
<g clip-path="url(#clip0_193_840)">
<mask id="mask0_193_840" style="mask-type:alpha" maskUnits="userSpaceOnUse" x="180" y="34" width="32" height="32">
<path d="M200.843 34H191.157C187.944 34 186.338 34 184.609 34.5467C182.721 35.2339 181.234 36.7208 180.547 38.6088C180 40.3379 180 41.9443 180 45.1565V54.8435C180 58.056 180 59.6619 180.547 61.3912C181.234 63.2792 182.721 64.7661 184.609 65.4531C186.338 66 187.944 66 191.157 66H200.843C204.056 66 205.662 66 207.391 65.4531C209.279 64.7661 210.766 63.2792 211.453 61.3912C212 59.6619 212 58.056 212 54.8435V45.1565C212 41.9443 212 40.3379 211.453 38.6088C210.766 36.7208 209.279 35.2339 207.391 34.5467C205.662 34 204.056 34 200.843 34Z" fill="black"/>
</mask>
<g mask="url(#mask0_193_840)">
<path d="M200.843 34H191.157C187.944 34 186.338 34 184.609 34.5467C182.721 35.2339 181.234 36.7208 180.547 38.6088C180 40.3379 180 41.9443 180 45.1565V54.8435C180 58.056 180 59.6619 180.547 61.3912C181.234 63.2792 182.721 64.7661 184.609 65.4531C186.338 66 187.944 66 191.157 66H200.843C204.056 66 205.662 66 207.391 65.4531C209.279 64.7661 210.766 63.2792 211.453 61.3912C212 59.6619 212 58.056 212 54.8435V45.1565C212 41.9443 212 40.3379 211.453 38.6088C210.766 36.7208 209.279 35.2339 207.391 34.5467C205.662 34 204.056 34 200.843 34Z" fill="white"/>
</g>
</g>
</g>
<g clip-path="url(#clip1_193_840)">
<path d="M201.83 49.2104C201.726 49.1605 201.62 49.1124 201.513 49.0664C201.326 45.6264 199.447 43.657 196.291 43.6368C196.276 43.6367 196.262 43.6367 196.248 43.6367C194.36 43.6367 192.79 44.4426 191.823 45.9089L193.559 47.0996C194.281 46.0043 195.414 45.7708 196.249 45.7708C196.258 45.7708 196.268 45.7708 196.277 45.7709C197.317 45.7776 198.101 46.0797 198.608 46.669C198.978 47.0979 199.225 47.6907 199.347 48.4389C198.426 48.2823 197.429 48.2341 196.364 48.2952C193.363 48.4681 191.434 50.2182 191.564 52.6501C191.629 53.8836 192.244 54.9449 193.294 55.6381C194.182 56.2241 195.325 56.5107 196.514 56.4459C198.083 56.3598 199.314 55.7611 200.173 54.6662C200.825 53.8348 201.238 52.7573 201.42 51.3996C202.168 51.851 202.722 52.445 203.028 53.159C203.549 54.3728 203.579 56.3674 201.952 57.9935C200.526 59.418 198.812 60.0343 196.221 60.0533C193.348 60.032 191.175 59.1105 189.762 57.3143C188.439 55.6324 187.755 53.2031 187.73 50.0938C187.755 46.9844 188.439 44.555 189.762 42.8731C191.175 41.077 193.348 40.1555 196.221 40.1341C199.116 40.1556 201.327 41.0816 202.794 42.8864C203.513 43.7714 204.055 44.8845 204.413 46.1822L206.447 45.6395C206.014 44.0421 205.332 42.6656 204.404 41.5241C202.523 39.2102 199.773 38.0246 196.228 38H196.214C192.677 38.0245 189.958 39.2146 188.131 41.5373C186.505 43.6042 185.666 46.4802 185.638 50.0852L185.638 50.0938L185.638 50.1023C185.666 53.7073 186.505 56.5833 188.131 58.6502C189.958 60.9728 192.677 62.1631 196.214 62.1875H196.228C199.373 62.1657 201.589 61.3424 203.415 59.5182C205.804 57.1316 205.732 54.14 204.945 52.3035C204.38 50.9865 203.303 49.9169 201.83 49.2104ZM196.401 54.3148C195.086 54.3889 193.72 53.7986 193.652 52.5342C193.602 51.5967 194.319 50.5505 196.482 50.4259C196.73 50.4116 196.973 50.4047 197.211 50.4047C197.997 50.4047 198.732 50.481 199.4 50.627C199.15 53.7389 197.689 54.2442 196.401 54.3148Z" fill="black"/>
</g>
<defs>
<filter id="filter0_ddddd_193_840" x="0" y="0" width="392" height="697" filterUnits="userSpaceOnUse" color-interpolation-filters="sRGB">
<feFlood flood-opacity="0" result="BackgroundImageFix"/>
<feColorMatrix in="SourceAlpha" type="matrix" values="0 0 0 0 0 0 0 0 0 0 0 0 0 0 0 0 0 0 127 0" result="hardAlpha"/>
<feOffset/>
<feColorMatrix type="matrix" values="0 0 0 0 0 0 0 0 0 0 0 0 0 0 0 0 0 0 0.25 0"/>
<feBlend mode="normal" in2="BackgroundImageFix" result="effect1_dropShadow_193_840"/>
<feColorMatrix in="SourceAlpha" type="matrix" values="0 0 0 0 0 0 0 0 0 0 0 0 0 0 0 0 0 0 127 0" result="hardAlpha"/>
<feOffset dy="28"/>
<feGaussianBlur stdDeviation="31"/>
<feColorMatrix type="matrix" values="0 0 0 0 0 0 0 0 0 0 0 0 0 0 0 0 0 0 0.25 0"/>
<feBlend mode="normal" in2="effect1_dropShadow_193_840" result="effect2_dropShadow_193_840"/>
<feColorMatrix in="SourceAlpha" type="matrix" values="0 0 0 0 0 0 0 0 0 0 0 0 0 0 0 0 0 0 127 0" result="hardAlpha"/>
<feOffset dy="113"/>
<feGaussianBlur stdDeviation="56.5"/>
<feColorMatrix type="matrix" values="0 0 0 0 0 0 0 0 0 0 0 0 0 0 0 0 0 0 0.21 0"/>
<feBlend mode="normal" in2="effect2_dropShadow_193_840" result="effect3_dropShadow_193_840"/>
<feColorMatrix in="SourceAlpha" type="matrix" values="0 0 0 0 0 0 0 0 0 0 0 0 0 0 0 0 0 0 127 0" result="hardAlpha"/>
<feOffset dy="253"/>
<feGaussianBlur stdDeviation="76"/>
<feColorMatrix type="matrix" values="0 0 0 0 0 0 0 0 0 0 0 0 0 0 0 0 0 0 0.13 0"/>
<feBlend mode="normal" in2="effect3_dropShadow_193_840" result="effect4_dropShadow_193_840"/>
<feColorMatrix in="SourceAlpha" type="matrix" values="0 0 0 0 0 0 0 0 0 0 0 0 0 0 0 0 0 0 127 0" result="hardAlpha"/>
<feOffset dy="451"/>
<feGaussianBlur stdDeviation="90"/>
<feColorMatrix type="matrix" values="0 0 0 0 0 0 0 0 0 0 0 0 0 0 0 0 0 0 0.04 0"/>
<feBlend mode="normal" in2="effect4_dropShadow_193_840" result="effect5_dropShadow_193_840"/>
<feBlend mode="normal" in="SourceGraphic" in2="effect5_dropShadow_193_840" result="shape"/>
</filter>
<clipPath id="clip0_193_840">
<rect x="180" y="34" width="32" height="32" rx="16" fill="white"/>
</clipPath>
<clipPath id="clip1_193_840">
<rect x="184" y="38" width="24.1875" height="24.1875" rx="12.0938" fill="white"/>
</clipPath>
</defs>
</svg>
